<?xml version="1.0" encoding="utf-8"?>
<!-- Generator: Adobe Illustrator 23.1.0, SVG Export Plug-In . SVG Version: 6.00 Build 0)  -->
<svg version="1.1" id="Layer_1" xmlns="http://www.w3.org/2000/svg" xmlns:xlink="http://www.w3.org/1999/xlink" x="0px" y="0px"
	 viewBox="0 0 253.8 389.2" style="enable-background:new 0 0 253.8 389.2;" xml:space="preserve">
<style type="text/css">
	.st0{clip-path:url(#SVGID_2_);fill:#FFFFFF;}
</style>
<g>
	<defs>
		<rect id="SVGID_1_" width="253.8" height="389.2"/>
	</defs>
	<clipPath id="SVGID_2_">
		<use xlink:href="#SVGID_1_"  style="overflow:visible;"/>
	</clipPath>
	<path class="st0" d="M32,12.6c-0.6-0.9-1.3-1.7-2.1-2.4C29,9.5,28.1,9,27,8.6C25.9,8.2,24.8,8,23.6,8c-2.2,0-4,0.4-5.5,1.3
		c-1.5,0.8-2.7,2-3.7,3.4c-0.9,1.4-1.6,3-2,4.8c-0.4,1.8-0.6,3.6-0.6,5.6c0,1.8,0.2,3.6,0.6,5.4c0.4,1.7,1.1,3.3,2,4.7
		s2.2,2.5,3.7,3.3c1.5,0.8,3.3,1.3,5.5,1.3c2.9,0,5.2-0.9,6.9-2.7c1.7-1.8,2.7-4.2,3-7.1h9.3c-0.2,2.7-0.9,5.2-1.9,7.4
		c-1,2.2-2.4,4.1-4,5.6c-1.7,1.5-3.6,2.7-5.9,3.5c-2.2,0.8-4.7,1.2-7.4,1.2c-3.3,0-6.4-0.6-9-1.7c-2.7-1.2-4.9-2.8-6.8-4.8
		c-1.8-2-3.2-4.4-4.2-7.2c-1-2.7-1.5-5.7-1.5-8.9c0-3.3,0.5-6.3,1.5-9.1c1-2.8,2.4-5.2,4.2-7.3c1.8-2.1,4.1-3.7,6.8-4.9
		s5.7-1.8,9-1.8c2.4,0,4.7,0.3,6.8,1c2.1,0.7,4.1,1.7,5.7,3c1.7,1.3,3.1,3,4.2,4.9c1.1,2,1.8,4.2,2.1,6.7h-9.3
		C32.9,14.5,32.6,13.5,32,12.6"/>
	<path class="st0" d="M56.4,37c1.3,1.3,3.2,1.9,5.6,1.9c1.8,0,3.3-0.4,4.5-1.3c1.3-0.9,2-1.8,2.3-2.8h7.6c-1.2,3.8-3.1,6.5-5.6,8.1
		c-2.5,1.6-5.6,2.4-9.2,2.4c-2.5,0-4.7-0.4-6.7-1.2s-3.7-1.9-5.1-3.4c-1.4-1.5-2.5-3.2-3.2-5.3c-0.8-2-1.1-4.3-1.1-6.7
		s0.4-4.6,1.2-6.6c0.8-2,1.9-3.8,3.3-5.3c1.4-1.5,3.1-2.7,5.1-3.5c2-0.9,4.2-1.3,6.6-1.3c2.7,0,5,0.5,7,1.6c2,1,3.6,2.4,4.9,4.2
		c1.3,1.8,2.2,3.8,2.8,6c0.6,2.2,0.8,4.6,0.6,7H54.2C54.4,33.7,55.1,35.7,56.4,37 M66.3,20.4c-1-1.1-2.6-1.7-4.7-1.7
		c-1.4,0-2.5,0.2-3.5,0.7c-0.9,0.5-1.6,1.1-2.2,1.7c-0.5,0.7-0.9,1.4-1.2,2.2c-0.2,0.8-0.4,1.5-0.4,2.1h14.1
		C68,23.2,67.3,21.5,66.3,20.4"/>
	<path class="st0" d="M89.3,13v5.9h0.1c0.4-1,1-1.9,1.6-2.7c0.7-0.8,1.5-1.5,2.4-2.1s1.9-1,2.9-1.4c1-0.3,2.1-0.5,3.2-0.5
		c0.6,0,1.2,0.1,1.9,0.3v8.1c-0.4-0.1-0.9-0.2-1.5-0.2c-0.6-0.1-1.1-0.1-1.6-0.1c-1.6,0-2.9,0.3-4,0.8c-1.1,0.5-2,1.3-2.7,2.2
		c-0.7,0.9-1.2,2-1.4,3.2c-0.3,1.2-0.4,2.5-0.4,4v14.1h-8.7V13H89.3z"/>
	<path class="st0" d="M124.6,13v5.8h-6.4v15.7c0,1.5,0.2,2.4,0.7,2.9s1.5,0.7,2.9,0.7c0.5,0,1,0,1.4-0.1c0.4,0,0.9-0.1,1.3-0.2v6.7
		c-0.7,0.1-1.6,0.2-2.4,0.2c-0.9,0-1.8,0.1-2.6,0.1c-1.3,0-2.6-0.1-3.8-0.3c-1.2-0.2-2.3-0.5-3.2-1.1c-0.9-0.5-1.6-1.3-2.2-2.3
		c-0.5-1-0.8-2.3-0.8-3.8V18.6h-5.3v-5.8h5.3V3.3h8.7v9.5h6.4V13z"/>
	<path class="st0" d="M129,0.9h8.7v7.2H129V0.9z M137.7,44.6H129V13h8.7V44.6z"/>
	<path class="st0" d="M141.3,18.8V13h5.2v-2.4c0-2.8,0.9-5.1,2.6-6.9c1.8-1.8,4.4-2.7,8-2.7c0.8,0,1.5,0,2.3,0.1
		c0.8,0.1,1.5,0.1,2.3,0.2v6.5c-1-0.1-2.1-0.2-3.2-0.2c-1.2,0-2,0.3-2.5,0.8s-0.8,1.5-0.8,2.8v1.9h6v5.8h-6v25.7h-8.7V18.8H141.3z"
		/>
	<path class="st0" d="M166.4,0.9h8.7v7.2h-8.7V0.9z M175.1,44.6h-8.7V13h8.7V44.6z"/>
	<path class="st0" d="M188.8,37c1.3,1.3,3.2,1.9,5.6,1.9c1.8,0,3.3-0.4,4.5-1.3c1.3-0.9,2-1.8,2.3-2.8h7.6c-1.2,3.8-3.1,6.5-5.6,8.1
		c-2.5,1.6-5.6,2.4-9.2,2.4c-2.5,0-4.7-0.4-6.7-1.2s-3.7-1.9-5.1-3.4c-1.4-1.5-2.5-3.2-3.2-5.3c-0.8-2-1.1-4.3-1.1-6.7
		s0.4-4.6,1.2-6.6c0.8-2,1.9-3.8,3.3-5.3c1.4-1.5,3.1-2.7,5.1-3.5c2-0.9,4.2-1.3,6.6-1.3c2.7,0,5,0.5,7,1.6c2,1,3.6,2.4,4.9,4.2
		c1.3,1.8,2.2,3.8,2.8,6c0.6,2.2,0.8,4.6,0.6,7h-22.8C186.8,33.7,187.5,35.7,188.8,37 M198.6,20.4c-1-1.1-2.6-1.7-4.7-1.7
		c-1.4,0-2.5,0.2-3.5,0.7c-0.9,0.5-1.7,1.1-2.2,1.7c-0.6,0.7-0.9,1.4-1.2,2.2c-0.2,0.8-0.4,1.5-0.4,2.1h14.1
		C200.4,23.2,199.6,21.5,198.6,20.4"/>
	<path class="st0" d="M235.8,40.5c-1,1.7-2.4,2.9-4,3.7c-1.7,0.8-3.5,1.1-5.6,1.1c-2.4,0-4.4-0.5-6.2-1.4c-1.8-0.9-3.3-2.2-4.4-3.7
		c-1.2-1.6-2-3.4-2.6-5.4c-0.6-2-0.9-4.2-0.9-6.4c0-2.1,0.3-4.2,0.9-6.1c0.6-2,1.5-3.7,2.6-5.2c1.2-1.5,2.6-2.7,4.4-3.6
		c1.8-0.9,3.8-1.4,6.1-1.4c1.9,0,3.7,0.4,5.3,1.2c1.7,0.8,3,2,4,3.5h0.1V0.9h8.7v43.7h-8.3v-4h-0.1V40.5z M235.4,24.9
		c-0.2-1.2-0.7-2.3-1.3-3.2c-0.6-0.9-1.4-1.7-2.3-2.2c-0.9-0.6-2.1-0.9-3.5-0.9s-2.6,0.3-3.6,0.9s-1.8,1.3-2.4,2.3
		c-0.6,0.9-1,2-1.3,3.2c-0.3,1.2-0.4,2.5-0.4,3.8c0,1.2,0.1,2.4,0.4,3.7c0.3,1.2,0.8,2.3,1.4,3.3c0.6,1,1.4,1.7,2.4,2.3
		s2.1,0.9,3.5,0.9s2.6-0.3,3.6-0.9s1.7-1.3,2.3-2.3c0.6-1,1-2,1.2-3.3c0.2-1.2,0.4-2.5,0.4-3.8C235.8,27.4,235.7,26.1,235.4,24.9"/>
	<path class="st0" d="M71.1,115.6h50.6c12.3,0,28.5,0,36.9,5.1c9.2,5.5,16.4,15.4,16.4,29.1c0,14.8-7.8,26-20.7,31.3v0.4
		c17.2,3.5,26.6,16.4,26.6,33.6c0,20.5-14.7,40.1-42.4,40.1H71.1V115.6z M89.7,175.6h37.2c21.1,0,29.7-7.6,29.7-22.3
		c0-19.4-13.7-22.1-29.7-22.1H89.7V175.6z M89.7,239.5h46.5c16,0,26.2-9.8,26.2-25c0-18.2-14.7-23.3-30.3-23.3H89.7V239.5z"/>
	<path class="st0" d="M228.4,185.4c0,58.6-47.5,106.1-106.2,106.1c-58.6,0-106.1-47.5-106.1-106.1S63.6,79.3,122.2,79.3
		C180.9,79.3,228.4,126.8,228.4,185.4 M122.3,63.1C54.8,63.1,0,117.8,0,185.4c0,67.5,54.7,122.3,122.3,122.3
		c67.5,0,122.3-54.7,122.3-122.3S189.8,63.1,122.3,63.1"/>
	<path class="st0" d="M22.6,334c-0.4-3.1-3.4-5.4-6.8-5.4c-6.1,0-8.4,5.2-8.4,10.6c0,5.1,2.3,10.3,8.4,10.3c4.2,0,6.5-2.9,7-6.9h6.6
		c-0.7,7.7-6,12.6-13.6,12.6c-9.6,0-15.2-7.1-15.2-16.1c0-9.2,5.6-16.3,15.2-16.3c6.8,0,12.5,4,13.3,11.1h-6.5V334z"/>
	<path class="st0" d="M43.6,331.6c7.1,0,11.6,4.7,11.6,11.8s-4.5,11.8-11.6,11.8c-7,0-11.6-4.7-11.6-11.8
		C32.1,336.2,36.6,331.6,43.6,331.6 M43.6,350.5c4.2,0,5.5-3.6,5.5-7.1c0-3.6-1.3-7.2-5.5-7.2s-5.4,3.6-5.4,7.2
		C38.2,346.9,39.5,350.5,43.6,350.5"/>
	<path class="st0" d="M58.8,332.2h5.8v4.2h0.1c1.1-2.8,4.2-4.8,7.1-4.8c0.4,0,0.9,0.1,1.3,0.2v5.7c-0.6-0.1-1.5-0.2-2.2-0.2
		c-4.5,0-6.1,3.2-6.1,7.2v10.1h-6.1v-22.4H58.8z"/>
	<path class="st0" d="M76.5,332.2h5.8v2.9h0.1c1.5-2.4,3.9-3.5,6.7-3.5c7,0,10.2,5.7,10.2,12c0,6-3.3,11.6-9.8,11.6
		c-2.7,0-5.2-1.2-6.7-3.4h-0.2v10.7h-6.1V332.2z M93.1,343.4c0-3.6-1.4-7.2-5.4-7.2s-5.3,3.6-5.3,7.2c0,3.6,1.4,7.1,5.4,7.1
		S93.1,347.1,93.1,343.4"/>
	<path class="st0" d="M113.8,331.6c7.1,0,11.6,4.7,11.6,11.8s-4.6,11.8-11.6,11.8s-11.6-4.7-11.6-11.8
		C102.2,336.2,106.8,331.6,113.8,331.6 M113.8,350.5c4.2,0,5.5-3.6,5.5-7.1c0-3.6-1.3-7.2-5.5-7.2c-4.2,0-5.4,3.6-5.4,7.2
		C108.4,346.9,109.6,350.5,113.8,350.5"/>
	<path class="st0" d="M129.5,332.2h5.8v4.2h0.1c1.1-2.8,4.2-4.8,7.1-4.8c0.4,0,1,0.1,1.3,0.2v5.7c-0.6-0.1-1.5-0.2-2.2-0.2
		c-4.5,0-6.1,3.2-6.1,7.2v10.1h-6.1v-22.4H129.5z"/>
	<path class="st0" d="M146.1,339.1c0.4-5.8,5.5-7.5,10.5-7.5c4.5,0,9.8,1,9.8,6.4v11.6c0,2,0.2,4.1,0.8,5H161
		c-0.2-0.7-0.4-1.4-0.4-2.2c-1.9,2-4.8,2.8-7.5,2.8c-4.2,0-7.6-2.1-7.6-6.7c0-5.1,3.8-6.3,7.6-6.8c3.8-0.6,7.3-0.4,7.3-2.9
		c0-2.6-1.8-3-4-3c-2.3,0-3.9,0.9-4.1,3.4h-6.2V339.1z M160.3,343.6c-1,0.9-3.2,1-5.1,1.3c-1.9,0.4-3.6,1-3.6,3.3
		c0,2.3,1.8,2.9,3.8,2.9c4.8,0,5-3.8,5-5.1L160.3,343.6L160.3,343.6z"/>
	<path class="st0" d="M179,332.2h4.5v4.1H179v11.1c0,2.1,0.5,2.6,2.6,2.6c0.7,0,1.3,0,1.9-0.2v4.8c-1,0.2-2.4,0.2-3.6,0.2
		c-3.8,0-7-0.9-7-5.3v-13.2h-3.7v-4.1h3.7v-6.7h6.1V332.2z"/>
	<path class="st0" d="M192.7,328.7h-6.1v-5.1h6.1V328.7z M186.6,332.2h6.1v22.4h-6.1V332.2z"/>
	<path class="st0" d="M207.6,331.6c7.1,0,11.6,4.7,11.6,11.8s-4.6,11.8-11.6,11.8s-11.5-4.7-11.5-11.8
		C196,336.2,200.6,331.6,207.6,331.6 M207.6,350.5c4.2,0,5.5-3.6,5.5-7.1c0-3.6-1.2-7.2-5.5-7.2c-4.2,0-5.4,3.6-5.4,7.2
		C202.2,346.9,203.4,350.5,207.6,350.5"/>
	<path class="st0" d="M223.1,332.2h5.8v3.1h0.1c1.6-2.5,4.2-3.7,6.8-3.7c6.5,0,8.2,3.7,8.2,9.2v13.8h-6.1V342c0-3.7-1.1-5.5-3.9-5.5
		c-3.3,0-4.8,1.9-4.8,6.4v11.7h-6.1V332.2z"/>
	<rect x="0.5" y="373.6" class="st0" width="243.7" height="15.6"/>
	<path class="st0" d="M247.7,322.7h-1.4v3.9h-0.7v-3.9h-1.4v-0.6h3.6v0.6H247.7z M253.7,326.6H253v-3.8l-1.5,3.8H251l-1.5-3.8v3.8
		h-0.8v-4.5h1.2l1.4,3.4l1.3-3.4h1.2v4.5H253.7z"/>
</g>
</svg>
