<?xml version="1.0" encoding="utf-8"?>
<!-- Generator: Adobe Illustrator 23.1.0, SVG Export Plug-In . SVG Version: 6.00 Build 0)  -->
<svg version="1.1" id="Layer_1" xmlns="http://www.w3.org/2000/svg" xmlns:xlink="http://www.w3.org/1999/xlink" x="0px" y="0px"
	 viewBox="0 0 100.3 101.8" style="enable-background:new 0 0 100.3 101.8;" xml:space="preserve">
<style type="text/css">
	.st0{clip-path:url(#SVGID_2_);fill:#0A506D;}
	.st1{clip-path:url(#SVGID_4_);fill:url(#SVGID_5_);}
	.st2{clip-path:url(#SVGID_7_);fill:url(#SVGID_8_);}
	.st3{clip-path:url(#SVGID_10_);fill:url(#SVGID_11_);}
	.st4{clip-path:url(#SVGID_13_);fill:url(#SVGID_14_);}
	.st5{clip-path:url(#SVGID_16_);fill:url(#SVGID_17_);}
	.st6{clip-path:url(#SVGID_19_);fill:url(#SVGID_20_);}
	.st7{clip-path:url(#SVGID_22_);fill:url(#SVGID_23_);}
	.st8{clip-path:url(#SVGID_25_);fill:url(#SVGID_26_);}
	.st9{clip-path:url(#SVGID_28_);fill:url(#SVGID_29_);}
	.st10{clip-path:url(#SVGID_31_);fill:url(#SVGID_32_);}
	.st11{clip-path:url(#SVGID_34_);fill:url(#SVGID_35_);}
	.st12{clip-path:url(#SVGID_37_);fill:url(#SVGID_38_);}
	.st13{clip-path:url(#SVGID_40_);fill:url(#SVGID_41_);}
	.st14{clip-path:url(#SVGID_43_);fill:url(#SVGID_44_);}
</style>
<g>
	<defs>
		<rect id="SVGID_1_" y="0" width="100.3" height="101.8"/>
	</defs>
	<clipPath id="SVGID_2_">
		<use xlink:href="#SVGID_1_"  style="overflow:visible;"/>
	</clipPath>
	<path class="st0" d="M5.1,42.5l3.2,0.5l0.7-0.9l0.3,0.1l-0.6,3.7l-0.3-0.1l-0.2-1.1l-6.8-1.1l-0.6,0.9l-0.4-0.1L1,40.7l0.3,0.1
		l0.2,1.1l2.9,0.5l0.7-3.7L2.3,38L1.7,39l-0.4-0.1l0.9-3.7l0.4,0.1l0.2,1.1l6.7,1.7l0.6-0.9l0.4,0.1l-1,3.7l-0.3-0.1L9,39.7
		l-3.2-0.8L5.1,42.5L5.1,42.5z M8.3,32.1l3.1,1.3l1.1-2.3l-1-1.3l0.2-0.5l1.8,0.9c0,0-1.3,2.7-2.5,5.8L10.6,36l0-1.1l-6.4-2.5
		l-0.8,0.8L3.1,33c1.3-3.3,2.7-6.3,2.7-6.3l1.8,0.8l-0.2,0.4l-1.6,0l-1.1,2.8l3,1.1l0.9-2L7.7,29l0.2-0.5l2.6,1.2l-0.2,0.5l-1.1,0
		L8.3,32.1L8.3,32.1z M18,19.5l1.8,1.5c-0.5,1.1-0.9,1.8-1.5,2.4c-1.7,2.1-4,2.3-6,0.6c-2.1-1.7-2.6-4-0.5-6.5
		c0.5-0.5,1.1-1.1,2-1.8l0.2-0.1l1.6,1.3l-0.4,0.5l-1.7-0.6c-0.2,0.1-0.4,0.3-0.6,0.5c-1.8,1.9-1.4,3.8,0.5,5.4
		c1.7,1.4,3.6,1.3,4.8-0.3c0.2-0.3,0.3-0.5,0.3-0.5l-1.6-1.3l-1,0.5L15.6,21l2.4-2.8l0.3,0.2L18,19.5z M21.5,18.8l-4.5-5.3L16,13.9
		l-0.2-0.3l2.9-2.4l0.2,0.3l-0.5,1l4.5,5.4l1.6-1.4l-0.4-1.7l0.4-0.3l1.3,1.8c0,0-2.3,1.8-4.5,3.9L21,19.8L21.5,18.8z M24.5,12.2
		c-1.4-2.4-0.9-4.8,1.6-6.2c2.3-1.2,4.4-0.4,5.5,1.8c1.2,2.4,0.6,4.9-1.6,6.1C27.9,15.1,25.7,14.4,24.5,12.2 M25.8,11.1
		c1.2,2,2.8,2.7,4,2.1c1.2-0.6,1.4-2.4,0.4-4.4c-1-1.9-2.5-2.8-3.9-2.1C24.6,7.5,24.6,9.2,25.8,11.1 M35.3,10.4L33,3.9l-1.1-0.1
		l-0.1-0.3l4-1.3c0.9-0.3,1.5-0.3,2.1,0c0.5,0.2,0.9,0.6,1,1.2c0.4,1.1-0.3,2.1-1.7,2.7c1.7-0.5,2.8,0,3.2,1.2
		c0.2,0.7,0.1,1.4-0.3,1.9c-0.4,0.5-1,0.9-2.1,1.2l-3.4,1.2l-0.1-0.3L35.3,10.4z M35.6,6.2L36.2,6c1-0.3,1.5-1.2,1.2-2.2
		c-0.3-1-1-1.4-2-1.1l-0.7,0.3L35.6,6.2z M36.9,10.1l0.5-0.2c0.7-0.2,1-0.4,1.3-0.8c0.2-0.4,0.3-0.9,0.1-1.4
		c-0.3-1.1-1.2-1.5-2.3-1.1l-0.6,0.2L36.9,10.1z M43.8,5.7l-0.7,2.5l1,0.3l0,0.4l-2.8,0.4l0-0.4l0.9-0.5l2.5-8.2l0.6-0.1l3.8,7.6
		l1,0.3l0,0.4l-3.7,0.2l0-0.3l0.9-0.6l-1.1-2.3L43.8,5.7z M44,5l2.2-0.2L44.9,2L44,5z M52.2,7.8l0.6-6.9l-1-0.5l0-0.4
		c2,0.1,3.8,0.3,3.8,0.3l0,0.3L54.4,1L53.8,8l2,0.2l0.9-1.5l0.5,0.1L56.8,9c0,0-3.2-0.4-5.8-0.5l0-0.3L52.2,7.8z M66.2,10.9l1.2-1.4
		L68,9.7l-0.8,1.9l-0.2,0c-1.2-0.1-1.8-0.2-2.5-0.5c-2.4-0.9-3.4-2.9-2.6-5.4c0.8-2.6,2.8-3.7,5.9-2.7c0.7,0.2,1.5,0.6,2.3,1.2
		l-0.7,2l-0.5-0.2V4.3c0,0-0.3-0.2-0.6-0.3c-2.7-0.9-4.1,0.3-4.7,2.3c-0.7,2.1,0.1,3.8,2,4.5C65.7,10.8,65.9,10.9,66.2,10.9
		 M81.6,19l6-2.2l1.8,2.1l-0.3,0.3L88,18.7l-5.2,4.5l0.5,1.1l-0.3,0.3c-1.2-1.4-2.3-2.7-2.3-2.7l0.2-0.3l1,0.4l4.1-3.8l-6.6,2.4
		l-0.2-0.2l2.4-6.6l-3.8,4.1l0.4,1l-0.3,0.2l-2.3-1.9L76,17l1.1,0.4l4.8-5l-0.4-1.1l0.3-0.2l2.1,1.8L81.6,19z M88.2,25.8l-2.3,1.5
		l0.2,1.1l-0.3,0.2c-1-1.5-2-3.1-2-3.1l0.3-0.2l0.9,0.6l5.7-3.8L90.5,21l0.3-0.2l2,3.1c0.7,1.1,0.9,1.7,0.8,2.4
		c-0.1,0.7-0.4,1.3-1.1,1.7c-1.3,0.8-2.9,0.2-3.9-1.4L88.2,25.8z M88.9,25.8c0.4,0.6,0.6,0.8,1,1c0.5,0.1,1.1,0.1,1.7-0.2
		c0.5-0.3,0.9-0.7,1-1.2c0.1-0.4,0-0.8-0.3-1.3l-0.5-0.7l-3.2,2.1L88.9,25.8z M91.1,31.8l-2.6,0l-0.1,1.1L88.1,33
		c-0.6-1.2-1.2-2.6-1.2-2.6l0.3-0.2L88,31l8.6,0.2l0.2,0.7l-6.3,5.7l0,1.1l-0.3,0.1c-0.6-1.8-1.1-3.4-1.1-3.4l0.3-0.1l0.8,0.7
		l1.9-1.7L91.1,31.8z M91.8,31.8l0.8,2l2.4-2L91.8,31.8z M92.1,44.3l1.8,0.3l0.1,0.6L92,45.5l-0.1-0.2c-0.5-1.1-0.7-1.7-0.9-2.4
		c-0.5-2.6,0.8-4.3,3.3-4.9c2.7-0.7,4.8,0.8,5.3,3.7c0.1,0.8,0.2,1.7,0.1,2.7l-2.1,0.4l-0.1-0.6l1.6-0.9c0-0.2,0-0.5-0.1-0.8
		c-0.5-2.4-2.1-3.4-4.4-2.9c-2.2,0.6-3.2,1.9-2.9,3.9C91.9,43.8,92,44,92.1,44.3L92.1,44.3z M99.5,50.9l-7,0l-0.4,1.4h-0.3
		c0.1-2.3,0-4.4,0-4.4h0.4l0.4,1.4h7l0-1.8l-1.8-0.6v-0.5h2.4c0,0,0.3,3.8,0,7.5h-2.4v-0.5l1.8-0.6L99.5,50.9z M0.7,49.5l7,0
		l0.4-1.4h0.4c-0.1,2.3,0,4.4,0,4.4H8.2l-0.4-1.4h-7l0,1.8l1.7,0.6v0.5H0.1c0,0-0.3-3.8,0-7.5h2.4v0.5l-1.7,0.6L0.7,49.5z M70.3,9
		c1.4-2.4,3.7-3.2,6.1-1.7c2.2,1.4,2.6,3.6,1.3,5.6c-1.5,2.2-3.9,3-6.1,1.7C69.6,13.4,69.1,11.2,70.3,9 M72,9.6
		c-1.1,2-0.9,3.8,0.2,4.5c1.1,0.7,2.8,0,4-1.9c1.2-1.8,1.2-3.6-0.2-4.5C74.5,6.8,73,7.6,72,9.6"/>
	<path class="st0" d="M9.9,83.6c3.2,2.6,7.5,2.3,11.1,3.7c-3.4-3.2-3.9-8-5.4-12.3c-1-2.6-2.5-5-4.1-7.3c1.8,4.2,0.9,9.7,3.3,13.7
		c0.7,1.3,1.7,2.4,2.7,3.4l-0.1,0.1c-0.8-0.5-1.6-1.1-2.4-1.9C11.1,79,5,78.5,2.6,72C3.3,76.7,6.5,80.9,9.9,83.6"/>
	<path class="st0" d="M36.6,90.6c0.5,0,0.9-0.2,0.9-0.2c-3.2-0.7-5.8-1.3-8.5-3.5c-3.6-3-6.3-6-10.3-8.4c0.5,0.3,2.8,4.9,4.6,7.7
		c1.3,1.9,3.4,3,5.3,3.5c1.6,0.4,1.9,0.6,1.9,0.6s-0.3,0.1-0.9,0c0,0-5.2-1.1-8.1-1.1c-11.3,0-14.2-4.3-14.2-4.3
		c3.4,6.1,10.3,8.3,14.8,8.3C28.6,93.1,33.5,90.6,36.6,90.6"/>
	<path class="st0" d="M78.1,93.1c4.5,0,11.4-2.3,14.8-8.3c0,0-2.9,4.3-14.2,4.3c-2.8,0-8.1,1.1-8.1,1.1c-0.6,0.1-0.9,0-0.9,0
		s0.3-0.2,1.9-0.6c1.8-0.5,4-1.5,5.3-3.5c1.9-2.8,4.1-7.4,4.6-7.7c-3.9,2.4-6.7,5.5-10.3,8.4c-2.7,2.3-5.4,2.8-8.5,3.5
		c0,0,0.4,0.2,0.9,0.2C66.8,90.6,71.6,93.1,78.1,93.1"/>
	<path class="st0" d="M7.9,75c1.1,0.9,3.4,3.1,3.8,3.7c0,0-0.2-0.9-0.5-1.9c-0.3-1.1-0.6-3.7-1.7-5.9c-0.8-1.8-4.3-7.5-4.9-10.7
		C4.5,60.2,2.1,70.1,7.9,75"/>
	<path class="st0" d="M79.2,87.3c3.6-1.4,7.9-1.1,11.1-3.7c3.4-2.7,6.7-6.9,7.3-11.7c-2.4,6.5-8.5,7-12.6,11
		c-0.7,0.8-1.5,1.5-2.4,1.9l-0.1-0.1c0.9-1,2-2.1,2.7-3.4c2.4-3.9,1.5-9.4,3.3-13.7C87,70,85.5,72.4,84.6,75
		C83.1,79.3,82.6,84.1,79.2,87.3"/>
	<path class="st0" d="M70.2,94.5c-5.6-2.3-11.5-5.2-18.3-3.8c-0.8,0.1-1.4,0.3-2.1,0.3c-0.7,0-1.3-0.2-2.1-0.3
		c-6.8-1.4-12.6,1.5-18.3,3.8c-4.2,1.5-9.7,1.3-13.4-1.1c1.8,2.1,4.3,3.5,6.8,4.4c4.7,1.8,10.3,0.6,14.1-2c3.3-1.8,6.2-5.2,10.6-3.9
		c-4.5,1.9-8.6,4.7-12.2,8.2l2.3,1.8c0,0,4.3-5.8,12.1-9.3c7.8,3.5,12.1,9.3,12.1,9.3l2.3-1.8c-3.7-3.5-7.8-6.2-12.2-8.2
		c4.4-1.3,7.2,2.1,10.6,3.9c3.9,2.5,9.5,3.7,14.2,2c2.5-0.9,5-2.2,6.8-4.4C79.9,95.8,74.4,96,70.2,94.5"/>
	<path class="st0" d="M92.4,75c5.8-4.9,3.3-14.8,3.3-14.8c-0.7,3.1-4.1,8.9-4.9,10.7c-1.1,2.2-1.4,4.8-1.7,5.9
		c-0.3,1.1-0.5,1.9-0.5,1.9C89,78.1,91.3,75.9,92.4,75"/>
</g>
<g>
	<defs>
		<path id="SVGID_3_" d="M71.4,37c-0.1,0-0.2,0.1-0.4,0.3c-1.3,1.4-3.1,2.6-5.3,3.6c-0.5,0.2-0.6,0.4-0.6,0.7c0,0.1,0.1,0.3,0.2,0.6
			c1.6,4.3,2.7,8.6,3.3,12.9c0,0,0.1,0.8,0.3,1c0.2,0.2,0.8-0.2,0.8-0.2c2.5-1.5,4.8-3.4,6.1-4.7c0.5-0.5,0.7-0.9,0.7-1.5
			c0-0.3-0.1-0.6-0.1-1.1c-1-4-2.5-7.8-4.5-11.2C71.6,37.1,71.5,37,71.4,37L71.4,37z"/>
	</defs>
	<clipPath id="SVGID_4_">
		<use xlink:href="#SVGID_3_"  style="overflow:visible;"/>
	</clipPath>
	
		<radialGradient id="SVGID_5_" cx="0" cy="101.824" r="1" gradientTransform="matrix(37.9669 0 0 60.7471 63.5821 -6147.0332)" gradientUnits="userSpaceOnUse">
		<stop  offset="0" style="stop-color:#3282AD"/>
		<stop  offset="0.7349" style="stop-color:#155D7D"/>
		<stop  offset="1" style="stop-color:#07516E"/>
	</radialGradient>
	<rect x="65" y="37" class="st1" width="11.4" height="19.2"/>
</g>
<g>
	<defs>
		<path id="SVGID_6_" d="M65.5,60.2c-4.3,1.5-8.9,2.3-13.8,2.5c-0.9,0.1-0.9,0.3-0.9,1c0,4.3-0.1,8.4-0.3,12.1c0,0,0,0.4,0.1,0.5
			c0.1,0.1,0.5,0.1,0.5,0.1c4.9-0.3,9.5-1.3,13.7-3.1c0.6-0.3,0.7-0.6,0.9-1.3c1.2-4.6,0.9-10.8,0.9-10.8s0-0.8-0.2-1
			c-0.1,0-0.1-0.1-0.2-0.1C65.9,60.1,65.5,60.2,65.5,60.2"/>
	</defs>
	<clipPath id="SVGID_7_">
		<use xlink:href="#SVGID_6_"  style="overflow:visible;"/>
	</clipPath>
	
		<radialGradient id="SVGID_8_" cx="0" cy="101.824" r="1" gradientTransform="matrix(38.0157 0 0 38.0157 63.594 -3832.5251)" gradientUnits="userSpaceOnUse">
		<stop  offset="0" style="stop-color:#3282AD"/>
		<stop  offset="0.7349" style="stop-color:#155D7D"/>
		<stop  offset="1" style="stop-color:#07516E"/>
	</radialGradient>
	<rect x="50.5" y="60.1" class="st2" width="16.4" height="16.3"/>
</g>
<g>
	<defs>
		<path id="SVGID_9_" d="M56.4,27c2.8,3.3,5.2,7.2,7.1,11.5c0.2,0.4,0.3,0.7,0.5,0.7c0.2,0.1,0.5-0.1,0.7-0.2c1.9-1,3.7-2.3,4.8-3.4
			c0.2-0.2,0.3-0.4,0.3-0.6v-0.2c0-0.2-0.1-0.5-0.4-0.8c-2.6-3.6-5.7-6.5-9-8.6C59.5,26,58,26.6,56.4,27"/>
	</defs>
	<clipPath id="SVGID_10_">
		<use xlink:href="#SVGID_9_"  style="overflow:visible;"/>
	</clipPath>
	
		<radialGradient id="SVGID_11_" cx="0" cy="101.824" r="1" gradientTransform="matrix(37.8866 0 0 37.8866 63.618 -3819.3831)" gradientUnits="userSpaceOnUse">
		<stop  offset="0" style="stop-color:#3282AD"/>
		<stop  offset="0.7349" style="stop-color:#155D7D"/>
		<stop  offset="1" style="stop-color:#07516E"/>
	</radialGradient>
	<rect x="56.4" y="25.3" class="st3" width="13.5" height="13.9"/>
</g>
<g>
	<defs>
		<path id="SVGID_12_" d="M50.4,27.7c0.1,4.7,0.2,9.3,0.3,13.8c0,0.4,0.1,0.6,0.2,0.7c0.1,0.1,0.3,0.1,0.5,0.1
			c3.1,0,7.4-0.9,9.9-1.9c0.3-0.1,0.4-0.2,0.5-0.4c0.1-0.2-0.1-0.6-0.1-0.6c-1.9-4.6-4.2-8.8-6.6-12.1
			C53.8,27.5,51.3,27.7,50.4,27.7"/>
	</defs>
	<clipPath id="SVGID_13_">
		<use xlink:href="#SVGID_12_"  style="overflow:visible;"/>
	</clipPath>
	
		<radialGradient id="SVGID_14_" cx="0" cy="101.824" r="1" gradientTransform="matrix(37.9421 0 0 45.5307 63.5701 -4597.6587)" gradientUnits="userSpaceOnUse">
		<stop  offset="0" style="stop-color:#3282AD"/>
		<stop  offset="0.7349" style="stop-color:#155D7D"/>
		<stop  offset="1" style="stop-color:#07516E"/>
	</radialGradient>
	<rect x="50.4" y="27.3" class="st4" width="11.5" height="15"/>
</g>
<g>
	<defs>
		<path id="SVGID_15_" d="M64.6,75.3c-0.1,0-0.2,0-0.6,0.2c-5.3,1.7-10,2.1-13,2.1c-0.4,0-0.5,0.1-0.6,0.6l-0.2,3.9
			c0,0,6,0.1,12.1-2.4c0.8-1.1,1.6-2.5,2.2-3.9C64.6,75.7,64.6,75.5,64.6,75.3C64.6,75.3,64.6,75.3,64.6,75.3L64.6,75.3z"/>
	</defs>
	<clipPath id="SVGID_16_">
		<use xlink:href="#SVGID_15_"  style="overflow:visible;"/>
	</clipPath>
	
		<radialGradient id="SVGID_17_" cx="0" cy="101.824" r="1" gradientTransform="matrix(38.0801 0 0 38.0801 63.618 -3839.1763)" gradientUnits="userSpaceOnUse">
		<stop  offset="0" style="stop-color:#3282AD"/>
		<stop  offset="0.7349" style="stop-color:#155D7D"/>
		<stop  offset="1" style="stop-color:#07516E"/>
	</radialGradient>
	<rect x="50.2" y="75.3" class="st5" width="14.4" height="7"/>
</g>
<g>
	<defs>
		<path id="SVGID_18_" d="M77.1,53.4C77,53.5,77,53.5,77.1,53.4c-1.5,1.5-4.1,3.4-7.1,4.9c-1,0.5-1.1,0.9-1.1,1.7
			c0.1,4.9-0.6,8.7-1.6,11.9c0,0-0.1,0.2,0.2,0.1c0.3-0.1,4.8-2.3,7.8-5.4c1-1,1.8-2.6,2-4.1C77.8,57.2,77.1,53.5,77.1,53.4
			C77.1,53.5,77.1,53.4,77.1,53.4L77.1,53.4z"/>
	</defs>
	<clipPath id="SVGID_19_">
		<use xlink:href="#SVGID_18_"  style="overflow:visible;"/>
	</clipPath>
	
		<radialGradient id="SVGID_20_" cx="0" cy="101.824" r="1" gradientTransform="matrix(38.0767 0 0 66.6342 63.5701 -6746.5781)" gradientUnits="userSpaceOnUse">
		<stop  offset="0" style="stop-color:#3282AD"/>
		<stop  offset="0.7349" style="stop-color:#155D7D"/>
		<stop  offset="1" style="stop-color:#07516E"/>
	</radialGradient>
	<rect x="67.1" y="53.4" class="st6" width="10.7" height="18.8"/>
</g>
<g>
	<defs>
		<path id="SVGID_21_" d="M74.4,30c0,1.2-0.3,2.5-0.8,3.8c-0.2,0.5-0.3,0.8-0.3,1c0,0.2,0.1,0.4,0.3,0.7c0,0,3.2,4.4,5.1,11.7
			c2-3.5,2-6.4,2-6.4c0-0.2,0-0.3,0-0.5c-0.9-4-3-7.8-6.3-11.3C74.4,29.3,74.4,29.6,74.4,30"/>
	</defs>
	<clipPath id="SVGID_22_">
		<use xlink:href="#SVGID_21_"  style="overflow:visible;"/>
	</clipPath>
	
		<radialGradient id="SVGID_23_" cx="0" cy="101.824" r="1" gradientTransform="matrix(38.0411 0 0 88.7626 63.5821 -8999.7109)" gradientUnits="userSpaceOnUse">
		<stop  offset="0" style="stop-color:#3282AD"/>
		<stop  offset="0.7349" style="stop-color:#155D7D"/>
		<stop  offset="1" style="stop-color:#07516E"/>
	</radialGradient>
	<rect x="73.3" y="29" class="st7" width="7.4" height="18.2"/>
</g>
<g>
	<defs>
		<path id="SVGID_24_" d="M18.2,50.1c0,17.1,14.5,32.1,31.3,32.1c0-0.3-0.2-4-0.2-4c0-0.4-0.1-0.6-0.6-0.6c0,0-7.3-0.6-9.7-1.8
			c-0.1-0.1,0-0.2,0.1-0.1c0,0,4.9,0.9,9.6,0.9c0,0,0.5,0,0.5-0.6c0-0.5-0.2-12.2-0.2-12.2c0-0.9-0.2-1-1-1.1
			c-5.1-0.2-10.1-1.3-14.4-3.1c-0.1-0.1-0.2-0.1-0.2,0c-0.1,0-0.1,0.2-0.1,0.2c-0.4,5.4,0.2,10.6,0.2,10.6c0,0.1,0,0.1-0.1,0.1
			c-0.1,0-0.1-0.1-0.1-0.1c-0.8-2.9-1.2-6-1.2-9.4c0-0.2,0-1.6,0-1.6c0-0.4-0.1-0.6-0.5-0.8c-2.1-1-3.9-2.3-5.5-3.6
			c0,0-0.1-0.1,0-0.2c0.1-0.1,0.2,0,0.2,0c1.7,1.1,3.6,2,5.6,2.8l0.2,0c0.1-0.1,0.1-0.2,0.1-0.5c0.3-5,1.7-10.2,3.6-15.2
			c0-0.1,0.1-0.2,0.1-0.3c0-0.1-0.1-0.2-0.4-0.4C32.4,40,30,38.1,28.4,36c0,0-0.1-0.1,0-0.2c0.1-0.1,0.2,0,0.2,0
			c1.8,1.7,4.4,3.2,7.4,4.3c0.1,0,0.2,0.1,0.3,0.1c0.1,0,0.2-0.1,0.4-0.5c2-4.7,4.7-9.1,7.7-12.8c-2.5-0.6-5.1-2-5.7-3.5
			c0,0-0.1-0.2,0-0.2c0.1-0.1,0.2,0.1,0.2,0.1c2.8,3,11,2.9,11,2.9c3.3,0,10.2-1.2,10.5-3.9v-0.3c-0.2-2.5-3.9-3.8-10.6-3.9
			C29.2,18.1,18.2,35.9,18.2,50.1"/>
	</defs>
	<clipPath id="SVGID_25_">
		<use xlink:href="#SVGID_24_"  style="overflow:visible;"/>
	</clipPath>
	
		<radialGradient id="SVGID_26_" cx="0" cy="101.824" r="1" gradientTransform="matrix(38.016 0 0 55.7568 63.5582 -5638.8809)" gradientUnits="userSpaceOnUse">
		<stop  offset="0" style="stop-color:#3282AD"/>
		<stop  offset="0.7349" style="stop-color:#155D7D"/>
		<stop  offset="1" style="stop-color:#07516E"/>
	</radialGradient>
	<rect x="18.2" y="18.1" class="st8" width="42.3" height="64.1"/>
</g>
<g>
	<defs>
		<path id="SVGID_27_" d="M62.7,21.9c0,0.8-0.4,1.6-1.1,2.5c3.6,2.1,6.6,4.6,9.2,7.6c0,0,0.4,0.5,0.7,0.5c0.2,0,0.3-0.4,0.3-0.4
			c0.6-1.4,0.7-3.4,0.1-4.8c-0.6-1.3-2.4-2.7-2.4-2.7c-2.7-2.1-5.8-3.5-7.2-4C62.6,21,62.7,21.4,62.7,21.9"/>
	</defs>
	<clipPath id="SVGID_28_">
		<use xlink:href="#SVGID_27_"  style="overflow:visible;"/>
	</clipPath>
	
		<radialGradient id="SVGID_29_" cx="0" cy="101.824" r="1" gradientTransform="matrix(37.9869 0 0 47.4836 63.5821 -4796.5127)" gradientUnits="userSpaceOnUse">
		<stop  offset="0" style="stop-color:#3282AD"/>
		<stop  offset="0.7349" style="stop-color:#155D7D"/>
		<stop  offset="1" style="stop-color:#07516E"/>
	</radialGradient>
	<rect x="61.6" y="20.5" class="st9" width="10.9" height="12"/>
</g>
<g>
	<defs>
		<path id="SVGID_30_" d="M80.1,49.4c-0.6,1-0.8,1.6-0.7,2.3c0.2,2.1,0.2,4,0.2,4c0,2.2-0.2,4.4-0.6,6.4c1.8-3.1,3.2-7.5,3.2-12.7
			c0-1.5-0.1-2.9-0.4-4.5C81.5,46.5,81,48,80.1,49.4"/>
	</defs>
	<clipPath id="SVGID_31_">
		<use xlink:href="#SVGID_30_"  style="overflow:visible;"/>
	</clipPath>
	
		<radialGradient id="SVGID_32_" cx="0" cy="101.824" r="1" gradientTransform="matrix(37.9587 0 0 132.8553 63.594 -13489.3076)" gradientUnits="userSpaceOnUse">
		<stop  offset="0" style="stop-color:#3282AD"/>
		<stop  offset="0.7349" style="stop-color:#155D7D"/>
		<stop  offset="1" style="stop-color:#07516E"/>
	</radialGradient>
	<rect x="78.9" y="44.9" class="st10" width="3.2" height="17.2"/>
</g>
<g>
	<defs>
		<path id="SVGID_33_" d="M67.1,74.3c-0.6,0.2-1.1,0.9-1.3,1.4c-0.6,1.2-1.2,2.3-2,3.3c3.8-1.9,8.2-5.6,11.1-9.4
			C72.6,71.5,70,73,67.1,74.3"/>
	</defs>
	<clipPath id="SVGID_34_">
		<use xlink:href="#SVGID_33_"  style="overflow:visible;"/>
	</clipPath>
	
		<radialGradient id="SVGID_35_" cx="0" cy="101.824" r="1" gradientTransform="matrix(37.9982 0 0 37.9982 63.6061 -3830.7219)" gradientUnits="userSpaceOnUse">
		<stop  offset="0" style="stop-color:#3282AD"/>
		<stop  offset="0.7349" style="stop-color:#155D7D"/>
		<stop  offset="1" style="stop-color:#07516E"/>
	</radialGradient>
	<rect x="63.8" y="69.6" class="st11" width="11.1" height="9.4"/>
</g>
<g>
	<defs>
		<path id="SVGID_36_" d="M36.9,42.4c-3,7.4-3.6,15.4-3.6,15.4c0,0.4,0.1,0.4,0.3,0.6c0,0,6.3,2.4,14.3,2.4c0,0,0.5,0,0.7-0.2
			c0.2-0.2,0.2-0.4,0.2-1c0-4,0.1-14.4,0.1-14.4c0-0.7-0.3-1-0.9-1c-3.7-0.2-7.4-0.9-10.5-2c-0.2-0.1-0.3-0.1-0.4-0.1
			C37.1,42.1,37,42.1,36.9,42.4"/>
	</defs>
	<clipPath id="SVGID_37_">
		<use xlink:href="#SVGID_36_"  style="overflow:visible;"/>
	</clipPath>
	
		<radialGradient id="SVGID_38_" cx="0" cy="101.824" r="1" gradientTransform="matrix(37.9679 0 0 44.2959 63.6061 -4471.9824)" gradientUnits="userSpaceOnUse">
		<stop  offset="0" style="stop-color:#3282AD"/>
		<stop  offset="0.7349" style="stop-color:#155D7D"/>
		<stop  offset="1" style="stop-color:#07516E"/>
	</radialGradient>
	<rect x="33.4" y="42.1" class="st12" width="15.7" height="18.7"/>
</g>
<g>
	<defs>
		<path id="SVGID_39_" d="M37.8,40.1c-0.2,0.4-0.1,0.6-0.1,0.6c0.1,0.1,0.2,0.1,0.2,0.1c2.4,0.8,7,1.6,10.3,1.6
			c0.4,0,0.6-0.1,0.7-0.2c0.1-0.1,0.2-0.4,0.2-0.8c0.1-4.5,0.2-9.1,0.5-13.7c-1.4,0-3.1-0.3-4.2-0.5C42.3,31,39.8,35.3,37.8,40.1"/>
	</defs>
	<clipPath id="SVGID_40_">
		<use xlink:href="#SVGID_39_"  style="overflow:visible;"/>
	</clipPath>
	
		<radialGradient id="SVGID_41_" cx="0" cy="101.824" r="1" gradientTransform="matrix(37.9761 0 0 45.5715 63.5821 -4601.7925)" gradientUnits="userSpaceOnUse">
		<stop  offset="0" style="stop-color:#3282AD"/>
		<stop  offset="0.7349" style="stop-color:#155D7D"/>
		<stop  offset="1" style="stop-color:#07516E"/>
	</radialGradient>
	<rect x="37.6" y="27.1" class="st13" width="11.9" height="15.2"/>
</g>
<g>
	<defs>
		<path id="SVGID_42_" d="M62.6,42.3c-0.1,0-0.3,0-0.5,0.1c-3.2,1.1-6.7,1.6-10.4,1.8c-0.7,0-0.9,0.5-0.9,1c0,2.3,0.1,5.9,0.1,10.7
			c0,1.2,0,2.9,0,4.1c0,0,0,0.4,0.1,0.5c0.1,0.1,0.3,0.1,0.5,0.1c2.2-0.1,8-0.5,13.8-2.8c0.8-0.3,1-0.7,1-1.3c0-0.2,0-0.3,0-0.5
			c-0.6-4.4-1.6-8.9-3.1-13.2C62.9,42.4,62.7,42.3,62.6,42.3L62.6,42.3z"/>
	</defs>
	<clipPath id="SVGID_43_">
		<use xlink:href="#SVGID_42_"  style="overflow:visible;"/>
	</clipPath>
	
		<radialGradient id="SVGID_44_" cx="0" cy="101.824" r="1" gradientTransform="matrix(38.1524 0 0 44.5113 63.618 -4493.9307)" gradientUnits="userSpaceOnUse">
		<stop  offset="0" style="stop-color:#3282AD"/>
		<stop  offset="0.7349" style="stop-color:#155D7D"/>
		<stop  offset="1" style="stop-color:#07516E"/>
	</radialGradient>
	<rect x="50.7" y="42.3" class="st14" width="15.5" height="18.4"/>
</g>
</svg>
