<?xml version="1.0" encoding="utf-8"?>
<!-- Generator: Adobe Illustrator 23.1.0, SVG Export Plug-In . SVG Version: 6.00 Build 0)  -->
<svg version="1.1" id="Layer_1" xmlns="http://www.w3.org/2000/svg" xmlns:xlink="http://www.w3.org/1999/xlink" x="0px" y="0px"
	 viewBox="0 0 152 152" style="enable-background:new 0 0 152 152;" xml:space="preserve">
<style type="text/css">
	.st0{fill:#FFFFFF;}
</style>
<path class="st0" d="M82.3,116.3V79.6h12.3l1.8-14.3H82.3v-9.2c0-4.2,1.2-7,7.1-7H97V36.3c-1.3-0.2-5.8-0.6-11.1-0.6
	c-10.9,0-18.4,6.7-18.4,19v10.6H55.1v14.3h12.4v36.8H82.3L82.3,116.3z"/>
<path class="st0" d="M76,152c-41.9,0-76-34.1-76-76S34.1,0,76,0s76,34.1,76,76S117.9,152,76,152z M76,2C35.2,2,2,35.2,2,76
	s33.2,74,74,74s74-33.2,74-74S116.8,2,76,2z"/>
</svg>
