<?xml version="1.0" encoding="utf-8"?>
<!-- Generator: Adobe Illustrator 24.1.2, SVG Export Plug-In . SVG Version: 6.00 Build 0)  -->
<svg version="1.1" id="Layer_1" xmlns="http://www.w3.org/2000/svg" xmlns:xlink="http://www.w3.org/1999/xlink" x="0px" y="0px"
	 viewBox="0 0 305.92 201.81" style="enable-background:new 0 0 305.92 201.81;" xml:space="preserve">
<style type="text/css">
	.st0{fill:#FFFFFF;}
</style>
<g>
	<path class="st0" d="M87.62,74.02l85.67,38.34c0.43,0.18,0.92,0.31,1.41,0.31c0.61,0,1.22-0.18,1.77-0.49l58.39-35.71
		c1.1-0.67,1.71-1.83,1.59-3.12c-0.12-1.28-0.86-2.32-2.02-2.87L146.2,32.13c-1.04-0.43-2.2-0.37-3.18,0.24L87.13,68.09
		c-1.04,0.67-1.65,1.83-1.53,3.06C85.73,72.43,86.46,73.53,87.62,74.02z M145.16,39.04l80.65,35.04l-51.36,31.37L96.06,70.41
		L145.16,39.04z"/>
	<path class="st0" d="M300.53,100.31l-149.07,94.1L69.58,139.2l80.22,44.45c0.49,0.31,1.1,0.43,1.65,0.43
		c0.61,0,1.28-0.18,1.83-0.55l150.97-95.27c1.59-0.98,2.02-3.06,1.04-4.65c-0.98-1.59-3.06-2.02-4.65-1.04L151.4,176.74L66.4,129.6
		l83.77,36.44c0.43,0.18,0.92,0.31,1.35,0.31c0.61,0,1.28-0.18,1.83-0.55l150.97-95.27c1.04-0.67,1.65-1.83,1.59-3.12
		c-0.12-1.22-0.86-2.32-2.02-2.81L155.92,0.28c-1.04-0.43-2.2-0.37-3.18,0.24L1.59,95.79l0,0l-0.06,0.06
		c-0.06,0-0.06,0.06-0.12,0.06c-0.06,0.06-0.12,0.12-0.18,0.12c-0.06,0.06-0.12,0.12-0.18,0.18c-0.06,0.06-0.06,0.06-0.12,0.12
		c-0.06,0.06-0.06,0.06-0.12,0.12l-0.06,0.06c-0.06,0.06-0.12,0.18-0.18,0.24l0,0l0,0c-0.06,0.06-0.06,0.12-0.12,0.18l-0.06,0.06
		v0.06c-0.06,0.06-0.06,0.18-0.12,0.24c0,0.06-0.06,0.12-0.06,0.12c0,0.06-0.06,0.12-0.06,0.18c0,0.06,0,0.06-0.06,0.12
		C0.06,97.8,0,97.93,0,97.99c0,0,0,0,0,0.06s0,0.12,0,0.18c0,0.06,0,0.12,0,0.18c0,0.06,0,0.12,0,0.24c0,0.06,0,0.12,0,0.18
		c0,0.06,0,0.12,0,0.18l0,0v0.06c0,0.06,0,0.12,0,0.18c0,0.06,0,0.06,0,0.12s0,0.12,0.06,0.18c0,0.06,0,0.12,0.06,0.18
		c0,0.06,0.06,0.12,0.06,0.18c0,0.06,0.06,0.06,0.06,0.12s0,0.06,0.06,0.12c0,0,0,0.06,0.06,0.06c0.06,0.06,0.06,0.12,0.12,0.18
		c0,0.06,0.06,0.12,0.06,0.12c0.06,0.06,0.06,0.06,0.12,0.12c0.06,0.06,0.06,0.06,0.12,0.12c0.06,0.06,0.12,0.12,0.12,0.18
		l0.06,0.06l0.06,0.06c0.06,0.06,0.06,0.06,0.12,0.12c0.06,0.06,0.12,0.12,0.18,0.18l0.06,0.06l148.03,99.79
		c0.55,0.37,1.22,0.55,1.9,0.55c0.61,0,1.22-0.18,1.83-0.55L304.14,106c1.59-0.98,2.02-3.06,1.04-4.65
		C304.2,99.82,302.12,99.33,300.53,100.31z M154.64,7.19l140.51,61.08l-144.06,90.92L10.58,98.11L154.64,7.19z"/>
	<path class="st0" d="M155.74,26.26l92.39,40.42c0.43,0.18,0.92,0.31,1.35,0.31c1.28,0,2.57-0.73,3.12-2.02
		c0.73-1.71,0-3.67-1.71-4.46l-92.45-40.42c-1.71-0.73-3.67,0-4.46,1.71C153.23,23.51,154.03,25.53,155.74,26.26z"/>
	<path class="st0" d="M67.26,86.31l92.45,40.42c0.43,0.18,0.92,0.31,1.35,0.31c1.28,0,2.57-0.73,3.12-2.02
		c0.73-1.71,0-3.67-1.71-4.46L69.95,80.13c-1.71-0.73-3.67,0-4.46,1.71C64.75,83.56,65.55,85.57,67.26,86.31z"/>
	<path class="st0" d="M141.12,133.08L48.67,92.67c-1.71-0.73-3.67,0-4.46,1.71c-0.73,1.71,0,3.67,1.71,4.46l92.45,40.42
		c0.43,0.18,0.92,0.31,1.35,0.31c1.28,0,2.57-0.73,3.12-2.02C143.57,135.84,142.84,133.82,141.12,133.08z"/>
</g>
</svg>
