<?xml version="1.0" encoding="utf-8"?>
<!-- Generator: Adobe Illustrator 23.1.0, SVG Export Plug-In . SVG Version: 6.00 Build 0)  -->
<svg version="1.1" id="Layer_1" xmlns="http://www.w3.org/2000/svg" xmlns:xlink="http://www.w3.org/1999/xlink" x="0px" y="0px"
	 viewBox="0 0 152 152" style="enable-background:new 0 0 152 152;" xml:space="preserve">
<style type="text/css">
	.st0{fill:#FFFFFF;}
</style>
<path class="st0" d="M76,152c-41.9,0-76-34.1-76-76S34.1,0,76,0s76,34.1,76,76S117.9,152,76,152z M76,2C35.2,2,2,35.2,2,76
	s33.2,74,74,74s74-33.2,74-74S116.8,2,76,2z"/>
<path class="st0" d="M92.8,39.2L92.8,39.2l4.3,0l1.6,0.3c1,0.2,2,0.5,2.8,0.8c0.8,0.3,1.7,0.7,2.5,1.2c0.8,0.4,1.5,0.9,2.2,1.3
	c0.6,0.5,1.2,0.9,1.7,1.4c0.5,0.5,1.3,0.6,2.3,0.4c1.1-0.2,2.2-0.6,3.4-1c1.2-0.4,2.4-0.9,3.7-1.5c1.2-0.5,1.9-0.9,2.2-1
	c0.3-0.2,0.4-0.2,0.4-0.2l0,0l0.1,0l0.1,0l0.1,0l0.1,0l0,0l0,0l0,0l0,0l0.1,0l0.1,0l0,0.1l0,0.1l0,0.1l0,0.1l0,0.1l0,0.1l0,0.1
	c0,0.1-0.1,0.2-0.1,0.3c0,0.1-0.3,0.7-0.8,1.6s-1.1,1.9-1.8,2.9c-0.7,1-1.4,1.7-2,2.2c-0.6,0.5-1,0.9-1.2,1.1
	c-0.2,0.2-0.4,0.4-0.7,0.6l-0.4,0.3l-0.1,0l-0.1,0l0,0l0,0l0,0l0,0l-0.1,0l-0.1,0l0,0l0,0l0,0l0,0l0,0l0,0l0,0l0,0h0.4l2.3-0.5
	c1.5-0.3,3-0.7,4.4-1.2l2.2-0.7l0.2-0.1l0.1,0l0.1,0l0.1,0l0.1,0l0.1,0l0.2,0l0.2,0v0.2l0,0l0,0l0,0l0,0l0,0l0,0l0,0l0,0l0,0l0,0
	l0,0l0,0l0,0.1l0,0.1l0,0c0,0-0.4,0.5-1,1.4c-0.7,0.9-1.1,1.4-1.1,1.4c-0.1,0-0.1,0.1-0.2,0.2c-0.1,0.2-0.7,0.8-1.7,1.8
	c-1.1,1.1-2.1,2-3.1,2.8c-1,0.8-1.6,1.9-1.6,3.1c0,1.2-0.1,2.6-0.2,4.1s-0.3,3.2-0.6,5s-0.8,3.8-1.4,6s-1.4,4.4-2.3,6.6
	c-0.9,2.1-1.8,4-2.8,5.7c-1,1.7-1.9,3.1-2.7,4.3c-0.8,1.2-1.7,2.3-2.5,3.3s-1.9,2.2-3.2,3.5c-1.3,1.3-2,2-2.1,2.1
	c-0.1,0.1-0.7,0.6-1.6,1.3c-0.9,0.8-1.9,1.6-3,2.3s-2.1,1.4-3,1.9c-0.9,0.5-2,1.1-3.3,1.8c-1.3,0.7-2.6,1.3-4.1,1.9
	c-1.5,0.6-3,1.1-4.7,1.6s-3.2,0.9-4.8,1.2c-1.5,0.3-3.3,0.5-5.2,0.7l-2.9,0.3v0h-5.3v0l-0.7,0c-0.5,0-0.8-0.1-1.2-0.1
	c-0.3,0-1.4-0.2-3.4-0.4s-3.5-0.6-4.6-0.8c-1.1-0.3-2.8-0.8-5-1.6c-2.2-0.8-4.1-1.5-5.7-2.3c-1.6-0.8-2.5-1.3-3-1.5
	c-0.4-0.2-0.8-0.4-1.3-0.8l-0.7-0.4l0,0l0,0l0,0l0,0l-0.1,0l-0.1,0l0,0l0,0l0,0l0,0l0,0l0,0h0v-0.2l0.1,0l0.1,0l0.4,0
	c0.2,0,0.9,0.1,2,0.1c1.1,0.1,2.2,0.1,3.5,0s2.5-0.2,3.8-0.4s2.8-0.5,4.5-1c1.8-0.5,3.3-1,4.8-1.7c1.5-0.6,2.5-1.1,3.1-1.4
	c0.6-0.3,1.5-0.9,2.8-1.7l1.9-1.3l0,0l0,0l0,0l0,0l0,0l0,0l0,0l0,0l0.1,0l0.1,0l0-0.1l0-0.1l0,0l0,0l-0.7,0c-0.4,0-0.9-0.1-1.3-0.1
	s-1-0.2-1.9-0.4c-0.9-0.2-1.8-0.6-2.8-1c-1-0.4-2-1-3-1.6s-1.7-1.1-2.1-1.5c-0.4-0.4-1-0.9-1.6-1.7c-0.7-0.7-1.2-1.5-1.7-2.2
	c-0.5-0.8-1-1.7-1.4-2.7l-0.7-1.5l0-0.1l0-0.1l0-0.1l0-0.1l0.1,0l0.1,0l0.9,0.1c0.6,0.1,1.5,0.1,2.8,0.1c1.3,0,2.2-0.1,2.7-0.2
	s0.8-0.1,0.9-0.2l0.2,0l0.2,0l0.2,0l0,0l0,0l0,0l0,0l-0.2,0l-0.2,0l-0.2,0l-0.2,0l-0.2,0c-0.1,0-0.3-0.1-0.6-0.2s-1-0.4-2.2-0.9
	c-1.2-0.5-2.2-1-2.9-1.5c-0.7-0.5-1.4-1-2-1.6c-0.6-0.6-1.3-1.3-2.1-2.3c-0.8-0.9-1.5-2-2-3.2c-0.6-1.2-1-2.4-1.3-3.5
	c-0.3-1.1-0.5-2.2-0.6-3.4l-0.2-1.7l0.1,0l0.1,0l0.1,0l0.1,0l0.1,0l0.1,0l1.3,0.6c0.8,0.4,1.9,0.7,3.2,1c1.3,0.3,2,0.4,2.2,0.4
	l0.4,0h0.7l0,0l0,0l0,0l0,0l0,0l0,0l0,0l0,0l-0.1,0l-0.1,0l0-0.1l0,0l0,0l0,0l-0.1,0l-0.1,0l0,0c0,0-0.2-0.2-0.7-0.5
	c-0.5-0.3-0.9-0.8-1.4-1.3c-0.5-0.6-1-1.1-1.5-1.7c-0.5-0.6-0.9-1.2-1.3-1.9s-0.8-1.5-1.2-2.6c-0.4-1-0.7-2.1-1-3.2
	c-0.2-1.1-0.3-2.1-0.4-3.2c0-1,0-1.9,0.1-2.7c0.1-0.7,0.2-1.6,0.5-2.5c0.2-0.9,0.6-1.9,1.1-3l0.7-1.6l0-0.1l0-0.1l0,0l0,0l0,0l0,0
	l0,0l0,0l0,0l0,0l0,0l0,0l0,0l0,0l0,0.1l0,0.1l0,0l0,0l1.1,1.2c0.7,0.8,1.6,1.7,2.6,2.7c1,1,1.6,1.5,1.7,1.6s0.2,0.2,0.4,0.4
	c0.2,0.2,0.7,0.7,1.6,1.5c0.9,0.8,2.1,1.7,3.7,2.7c1.5,1,3.2,2,5,3c1.8,1,3.8,1.9,5.9,2.7c2.1,0.8,3.6,1.3,4.4,1.6
	c0.8,0.2,2.3,0.6,4.3,0.9c2.1,0.4,3.6,0.6,4.6,0.7s1.8,0.2,2.1,0.2l0.6,0l0-0.1l0-0.1l-0.2-1c-0.1-0.7-0.2-1.6-0.2-2.9
	s0.1-2.4,0.3-3.4s0.5-2.1,0.9-3.2c0.4-1.1,0.8-1.9,1.1-2.6c0.4-0.6,0.9-1.4,1.5-2.2s1.4-1.7,2.3-2.5c1-0.9,2.1-1.7,3.3-2.3
	c1.2-0.7,2.4-1.2,3.4-1.6s1.9-0.6,2.6-0.7C92.5,39.2,92.8,39.2,92.8,39.2z"/>
</svg>
